<?xml version="1.0" standalone="no"?>
<!DOCTYPE svg PUBLIC "-//W3C//DTD SVG 20010904//EN"
 "http://www.w3.org/TR/2001/REC-SVG-20010904/DTD/svg10.dtd">
<svg version="1.0" xmlns="http://www.w3.org/2000/svg"
 width="480.000000pt" height="480.000000pt" viewBox="0 0 480.000000 480.000000"
 preserveAspectRatio="xMidYMid meet">
<metadata>
Created by potrace 1.11, written by Peter Selinger 2001-2013
</metadata>
<g transform="translate(0.000000,480.000000) scale(0.100000,-0.100000)"
fill="#000000" stroke="none">
<path d="M2040 4525 c-109 -16 -158 -30 -237 -66 -35 -16 -66 -29 -69 -29 -3
0 -10 -5 -17 -10 -7 -6 -57 -40 -112 -76 -110 -72 -246 -183 -313 -254 -67
-72 -148 -183 -161 -222 -7 -20 -21 -46 -31 -59 -11 -12 -20 -28 -20 -36 0
-18 -60 -205 -70 -218 -4 -5 -10 -26 -13 -45 -3 -19 -17 -89 -31 -155 -24
-108 -27 -133 -22 -260 3 -77 9 -235 12 -351 l7 -211 -29 -7 c-16 -4 -29 -6
-29 -4 0 2 -11 -7 -25 -20 -21 -20 -24 -29 -22 -90 2 -38 7 -93 12 -123 6 -30
12 -67 15 -84 3 -16 8 -79 11 -140 5 -82 13 -132 34 -195 15 -47 33 -116 39
-155 16 -94 31 -115 80 -115 21 0 57 6 79 14 39 14 41 14 56 -9 9 -14 16 -35
16 -47 0 -13 4 -39 9 -58 6 -19 12 -48 14 -65 3 -16 10 -50 16 -75 14 -65 39
-243 44 -325 3 -38 7 -77 10 -85 3 -8 8 -71 11 -140 3 -69 8 -145 11 -170 11
-100 13 -215 4 -232 -5 -10 -17 -18 -26 -18 -9 0 -13 -3 -10 -7 4 -3 -19 -23
-51 -43 -88 -57 -408 -249 -429 -258 -10 -4 -43 -23 -73 -42 l-55 -35 937 -3
c516 -1 1359 -1 1873 0 882 3 934 4 903 20 -49 25 -137 61 -298 123 -80 31
-163 64 -186 75 -23 11 -45 20 -50 20 -19 0 -214 83 -214 91 0 5 -9 9 -21 9
-20 0 -46 11 -214 90 -33 16 -68 37 -77 47 -17 19 -38 109 -37 158 0 17 -3
104 -7 195 -6 147 -5 167 10 179 9 7 16 22 16 32 0 9 6 24 13 31 7 7 25 50 40
94 29 82 46 209 47 335 0 36 2 68 5 71 3 3 26 -2 51 -11 68 -24 74 -11 73 154
-1 73 4 148 10 166 10 34 35 172 53 304 14 104 5 195 -22 217 -19 16 -21 24
-16 80 6 73 7 388 1 398 -2 3 -5 42 -5 86 -1 43 -6 97 -11 119 -4 22 -10 65
-13 95 -7 93 -66 395 -87 448 -5 13 -9 32 -9 43 0 10 -4 27 -9 37 -6 9 -25 50
-45 89 -128 267 -439 602 -616 666 -115 41 -399 79 -573 76 -40 -1 -110 -7
-157 -14z"/>
</g>
</svg>
